<?xml version="1.0" standalone="no"?>
<!DOCTYPE svg PUBLIC "-//W3C//DTD SVG 20010904//EN"
 "http://www.w3.org/TR/2001/REC-SVG-20010904/DTD/svg10.dtd">
<svg version="1.0" xmlns="http://www.w3.org/2000/svg"
 width="30.000000pt" height="30.000000pt" viewBox="0 0 30.000000 30.000000"
 preserveAspectRatio="xMidYMid meet">
<metadata>
Created by potrace 1.15, written by Peter Selinger 2001-2017
</metadata>
<g transform="translate(0.000000,30.000000) scale(0.100000,-0.100000)"
fill="#000000" stroke="none">
<path d="M95 270 c-63 -26 -96 -128 -60 -184 19 -29 33 -32 59 -13 18 13 18
15 2 40 -14 20 -16 37 -10 74 9 62 18 73 64 73 46 0 55 -11 64 -72 6 -36 3
-53 -10 -74 -17 -25 -17 -27 1 -41 26 -18 47 -13 62 17 30 59 1 148 -57 177
-28 14 -85 16 -115 3z"/>
</g>
</svg>
